# xmcd CD database generated by RipIT
#
# Track frame offsets:
# 150
# 34273
# 79557
# 109289
# 123032
# 154531
# 170467
# 179632
# 191724
# 211413
# 239345
# 320137
#
# Disc length: 4505 seconds
#
# Revision: 0
# Processed by: cddbd v1.5.2PL0 Copyright (c) Steve Scherf et al.
# Submitted via: RipIT 3.8.0 www.suwald.com/ripit/ripit.html on 2010-10-02 at 04:49
#
DISCID=a311970c
DTITLE=Tom Waits - Cold Beer On A Hot Night
DYEAR=1979
DGENRE=
TTITLE0=Tom Traubert's Blues
TTITLE1=Small Change Big Spender
TTITLE2=Romeo Is Bleeding
TTITLE3=Annie's Back In Town
TTITLE4=Jitterburg Boy, Better Off Without A Wife
TTITLE5=I Wish I Was In New Orleans, When The Saints Go Marching In
TTITLE6=Since I Fell In Love For You
TTITLE7=Red Shoes
TTITLE8=Silent Night, Christmas Card From A Hooker
TTITLE9=The Hokey Cokey, Pasties And A G-string
TTITLE10=Summertime, Burnma Shave
TTITLE11=Band Member Intros (over Romeo Is Bleeding)
EXTD=
EXTT0=
EXTT1=
EXTT2=
EXTT3=
EXTT4=
EXTT5=
EXTT6=
EXTT7=
EXTT8=
EXTT9=
EXTT10=
EXTT11=
PLAYORDER=
